<svg style="display: none" xmlns="http://www.w3.org/2000/svg">
    <symbol id="eye" viewBox="0 0 30.7 18.7">
        <defs><clipPath id="eye_id" clipPathUnits="userSpaceOnUse"><path d="M0 14h23V0H0z"/></clipPath></defs><g clip-path="url(#eye_id)" transform="matrix(1.33333 0 0 -1.33333 0 18.7)"><path d="M11.5 4a4.5 4.5 0 100 9 4.5 4.5 0 000-9z" fill="none" stroke-width="2" stroke-miterlimit="10"/><path d="M21.7 8a13 13 0 01-10.4 5 12.7 12.7 0 01-10-5c-.4-.6-.4-1.4 0-2a13 13 0 0110.4-5 12.6 12.6 0 0110 5c.4.6.4 1.4 0 2z" fill="none" stroke-width="2" stroke-miterlimit="10"/></g>
    </symbol>

    <symbol id="tick" viewBox="0 0 15.7 11">
        <path d="M2.2 6l4 3 7-8" fill="none" stroke-width="2"/>
    </symbol>

    <symbol id="return" viewBox="0 0 24 15">
        <path d="M18 15H5.5v-4H18c1.1 0 2-.9 2-2s-.9-2-2-2H9v2.3L.4 4.9 9 .7V3h9c3.3 0 6 2.7 6 6s-2.7 6-6 6zM6.5 14H18c2.8 0 5-2.2 5-5s-2.2-5-5-5H8V2.3L2.6 4.9 8 7.7V6h10c1.7 0 3 1.3 3 3s-1.3 3-3 3H6.5v2z"/>
    </symbol>

    <symbol id="delivery" viewBox="0 0 25 15">
        <path d="M24.8 7l-2-3-.7-1-1.3-2H16V0H1v3H0v1h1v3H0v1h1v5h3.1c.2 1.1 1.2 2 2.4 2s2.2-.9 2.4-2h8.2c.2 1.1 1.2 2 2.4 2s2.2-.9 2.4-2H25V7.3l-.2-.3zm-1.2 0H18V4h3.6l2 3zM7.9 13c-.2.6-.8 1-1.4 1s-1.2-.4-1.4-1l-.1-.5.1-.5c.2-.6.8-1 1.4-1s1.2.4 1.4 1l.1.5-.1.5zm1-1c-.2-1.1-1.2-2-2.4-2s-2.2.9-2.4 2H2v-1h1v-1H2V8h6V7H2V4h6V3H2V1h13v9h-5v1h5v1H8.9zm12 1c-.2.6-.8 1-1.4 1s-1.2-.4-1.4-1l-.1-.5.1-.5c.2-.6.8-1 1.4-1s1.2.4 1.4 1l.1.5-.1.5zm3.1-3h-1.5v1H24v1h-2.1c-.2-1.1-1.2-2-2.4-2s-2.2.9-2.4 2H16V2h4.2l.7 1H17v5h7v2z"/><path d="M3 5h8v1H3z"/>
    </symbol>

    <symbol id="quick-view-arrow" viewBox="0 0 15.1 30">
        <defs><filter id="qview" x="700" y="495" width="15.1" height="30" filterUnits="userSpaceOnUse"><feFlood result="flood" flood-color="#333"/><feComposite result="composite" operator="in" in2="SourceGraphic"/><feBlend result="blend" in2="SourceGraphic"/></filter></defs><g transform="translate(-700 -495)" fill="none" filter="url(#qview)"><path id="bqviewb" d="M700.4 524.7l14-14.7-14-14.7" stroke="inherit" filter="none" fill="inherit" stroke-width="1" fill-rule="evenodd"/></g><use transform="translate(-700 -495)" xlink:href="#bqviewb" filter="none" fill="none"/>
    </symbol>

    <symbol id="close2" viewBox="0 0 24 24" >
        <path d="M19 6.41L17.59 5 12 10.59 6.41 5 5 6.41 10.59 12 5 17.59 6.41 19 12 13.41 17.59 19 19 17.59 13.41 12z" />
    </symbol>

    <symbol id="specorder" viewBox="0 0 25 15"></symbol>

    <symbol id="discontinued" viewBox="0 0 25 15"></symbol>
</svg>
