<svg style="display: none" xmlns="http://www.w3.org/2000/svg">
    <symbol id="search" viewBox="-1 -1 38 38">
        <defs><clipPath id="a" clipPathUnits="userSpaceOnUse"><path d="M0 26.025h26V0H0z"/></clipPath></defs><g clip-path="url(#a)" transform="matrix(1.33333 0 0 -1.33333 0 34.7)"><path d="M2.169 16.265a7.59 7.59 0 1012.946-5.379h-.001a7.59 7.59 0 00-12.945 5.38M25.683 1.85l-8.31 8.31a9.714 9.714 0 012.146 6.104c0 5.39-4.37 9.76-9.76 9.76a9.759 9.759 0 01-9.758-9.76A9.759 9.759 0 0115.837 8.63L24.149.317a1.086 1.086 0 011.534 1.534"/></g>
    </symbol>

    <symbol id="phone" viewBox="0 0 35 35">
        <defs><clipPath id="b" clipPathUnits="userSpaceOnUse"><path d="M0 26h25.99V0H0z"/></clipPath></defs><g clip-path="url(#b)" transform="matrix(1.33333 0 0 -1.33333 0 34.67)"><path d="M24.37 6.34l-3.98 3.98c-.79.8-2.2.8-3 0l-.97-.98h0a2.13 2.13 0 00-2.47-.38c-.16.08-4.63 4.5-4.63 4.5a2.13 2.13 0 00.02 3l.98.96v.02a2.1 2.1 0 010 2.98L6.34 24.4c-.78.8-2.19.8-3 0l-.95-1h-.01C1.49 22.53 1 20.92 1 18.91.99 15.5 2.51 10.3 6.47 6.34c0 0 1-.94 1.52-1.36A18.1 18.1 0 0118.85 1h.03c2.01 0 3.62.5 4.49 1.38h.01l.99.97v.01a2.1 2.1 0 010 2.98z" fill="none" stroke="#000" stroke-width="2" stroke-miterlimit="10"/></g>
    </symbol>

    <symbol id="basket" viewBox="0 0 30 35">
        <defs><clipPath id="c" clipPathUnits="userSpaceOnUse"><path d="M0 26h21.937V0H0z"/></clipPath></defs><g clip-path="url(#c)" transform="matrix(1.33333 0 0 -1.33333 0 34.6667)"><path d="M19.9063 2.0312H2.0313v15.844h2.031v-3.047c0-.561.455-1.016 1.016-1.016.561 0 1.015.455 1.015 1.016v3.047h9.751v-3.047c0-.561.454-1.016 1.015-1.016.561 0 1.016.455 1.016 1.016v3.047h2.031zm-8.938 21.937c2.412 0 4.419-1.759 4.808-4.062h-9.615c.389 2.303 2.396 4.062 4.807 4.062m9.954-4.062h-3.095c-.404 3.427-3.325 6.094-6.859 6.094-3.533 0-6.454-2.667-6.858-6.094h-3.095c-.561 0-1.015-.455-1.015-1.016V1.0152c0-.561.454-1.015 1.015-1.015h19.907c.561 0 1.015.454 1.015 1.015v17.875c0 .561-.454 1.016-1.015 1.016"/></g>
    </symbol>

    <symbol id="arrow" viewBox="0 0 452 452">
        <path d="M226 354.7c-8.2 0-16.3-3-22.4-9.3L9.3 151.2A31.6 31.6 0 1154 106.4l172 172 171.8-172a31.6 31.6 0 0144.8 44.8L248.3 345.4a31.5 31.5 0 01-22.4 9.3z"/>
    </symbol>

    <symbol id="fb" viewBox="0 0 1024 1024">
        <path d="M608 192h160v-192h-160c-123.514 0-224 100.486-224 224v96h-128v192h128v512h192v-512h160l32-192h-192v-96c0-17.346 14.654-32 32-32z" />
    </symbol>

    <symbol id="ig" viewBox="0 0 1024 1024">
        <path d="M512 92.2c136.8 0 153 0.6 206.8 3 50 2.2 77 10.6 95 17.6 23.8 9.2 41 20.4 58.8 38.2 18 18 29 35 38.4 58.8 7 18 15.4 45.2 17.6 95 2.4 54 3 70.2 3 206.8s-0.6 153-3 206.8c-2.2 50-10.6 77-17.6 95-9.2 23.8-20.4 41-38.2 58.8-18 18-35 29-58.8 38.4-18 7-45.2 15.4-95 17.6-54 2.4-70.2 3-206.8 3s-153-0.6-206.8-3c-50-2.2-77-10.6-95-17.6-23.8-9.2-41-20.4-58.8-38.2-18-18-29-35-38.4-58.8-7-18-15.4-45.2-17.6-95-2.4-54-3-70.2-3-206.8s0.6-153 3-206.8c2.2-50 10.6-77 17.6-95 9.2-23.8 20.4-41 38.2-58.8 18-18 35-29 58.8-38.4 18-7 45.2-15.4 95-17.6 53.8-2.4 70-3 206.8-3zM512 0c-139 0-156.4 0.6-211 3-54.4 2.4-91.8 11.2-124.2 23.8-33.8 13.2-62.4 30.6-90.8 59.2-28.6 28.4-46 57-59.2 90.6-12.6 32.6-21.4 69.8-23.8 124.2-2.4 54.8-3 72.2-3 211.2s0.6 156.4 3 211c2.4 54.4 11.2 91.8 23.8 124.2 13.2 33.8 30.6 62.4 59.2 90.8 28.4 28.4 57 46 90.6 59 32.6 12.6 69.8 21.4 124.2 23.8 54.6 2.4 72 3 211 3s156.4-0.6 211-3c54.4-2.4 91.8-11.2 124.2-23.8 33.6-13 62.2-30.6 90.6-59s46-57 59-90.6c12.6-32.6 21.4-69.8 23.8-124.2 2.4-54.6 3-72 3-211s-0.6-156.4-3-211c-2.4-54.4-11.2-91.8-23.8-124.2-12.6-34-30-62.6-58.6-91-28.4-28.4-57-46-90.6-59-32.6-12.6-69.8-21.4-124.2-23.8-54.8-2.6-72.2-3.2-211.2-3.2v0z" /><path d="M512 249c-145.2 0-263 117.8-263 263s117.8 263 263 263 263-117.8 263-263c0-145.2-117.8-263-263-263zM512 682.6c-94.2 0-170.6-76.4-170.6-170.6s76.4-170.6 170.6-170.6c94.2 0 170.6 76.4 170.6 170.6s-76.4 170.6-170.6 170.6z" /><path d="M846.8 238.6c0 33.91-27.49 61.4-61.4 61.4s-61.4-27.49-61.4-61.4c0-33.91 27.49-61.4 61.4-61.4s61.4 27.49 61.4 61.4z" />
    </symbol>

    <symbol id="yt" viewBox="0 0 1024 1024">
        <path d="M1013.8 307.2c0 0-10-70.6-40.8-101.6-39-40.8-82.6-41-102.6-43.4-143.2-10.4-358.2-10.4-358.2-10.4h-0.4c0 0-215 0-358.2 10.4-20 2.4-63.6 2.6-102.6 43.4-30.8 31-40.6 101.6-40.6 101.6s-10.2 82.8-10.2 165.8v77.6c0 82.8 10.2 165.8 10.2 165.8s10 70.6 40.6 101.6c39 40.8 90.2 39.4 113 43.8 82 7.8 348.2 10.2 348.2 10.2s215.2-0.4 358.4-10.6c20-2.4 63.6-2.6 102.6-43.4 30.8-31 40.8-101.6 40.8-101.6s10.2-82.8 10.2-165.8v-77.6c-0.2-82.8-10.4-165.8-10.4-165.8zM406.2 644.8v-287.8l276.6 144.4-276.6 143.4z" />
    </symbol>

    <symbol id="tw" viewBox="0 0 1024 1024">
        <path d="M1024 226.4c-37.6 16.8-78.2 28-120.6 33 43.4-26 76.6-67.2 92.4-116.2-40.6 24-85.6 41.6-133.4 51-38.4-40.8-93-66.2-153.4-66.2-116 0-210 94-210 210 0 16.4 1.8 32.4 5.4 47.8-174.6-8.8-329.4-92.4-433-219.6-18 31-28.4 67.2-28.4 105.6 0 72.8 37 137.2 93.4 174.8-34.4-1-66.8-10.6-95.2-26.2 0 0.8 0 1.8 0 2.6 0 101.8 72.4 186.8 168.6 206-17.6 4.8-36.2 7.4-55.4 7.4-13.6 0-26.6-1.4-39.6-3.8 26.8 83.4 104.4 144.2 196.2 146-72 56.4-162.4 90-261 90-17 0-33.6-1-50.2-3 93.2 59.8 203.6 94.4 322.2 94.4 386.4 0 597.8-320.2 597.8-597.8 0-9.2-0.2-18.2-0.6-27.2 41-29.4 76.6-66.4 104.8-108.6z" />
    </symbol>

    <symbol id="pin" viewBox="0 0 1024 1024">
        <path d="M512 68.4c-245 0-443.6 198.6-443.6 443.6 0 188 117 348.4 282 413-3.8-35-7.4-89 1.6-127.2 8-34.6 52-220.4 52-220.4s-13.2-26.6-13.2-65.8c0-61.6 35.8-107.8 80.2-107.8 37.8 0 56.2 28.4 56.2 62.4 0 38-24.2 95-36.8 147.6-10.6 44.2 22 80.2 65.6 80.2 78.8 0 139.4-83.2 139.4-203.2 0-106.2-76.4-180.4-185.2-180.4-126.2 0-200.2 94.6-200.2 192.6 0 38.2 14.6 79 33 101.2 3.6 4.4 4.2 8.2 3 12.8-3.4 14-10.8 44.2-12.4 50.4-2 8.2-6.4 9.8-14.8 6-55.4-25.8-90-106.8-90-171.8 0-140 101.6-268.4 293-268.4 153.8 0 273.4 109.6 273.4 256.2 0 152.8-96.4 276-230.2 276-45 0-87.2-23.4-101.6-51 0 0-22.2 84.6-27.6 105.4-10 38.6-37 86.8-55.2 116.2 41.6 12.8 85.6 19.8 131.4 19.8 245 0 443.6-198.6 443.6-443.6 0-245.2-198.6-443.8-443.6-443.8z" />
    </symbol>

    <symbol id="visa" viewBox="0 0 1024 1024">
        <path d="M744 368c-16-6-42-13-74-13-82 0-140 41-140 101-1 43 41 68 72 82 33 15 44 24 44 38-1 20-26 29-50 29-33 0-51-4-78-16l-10-4-12 68c20 8 56 15 93 16 87 0 144-41 145-104 0-35-22-61-70-83-28-14-46-23-46-38 0-12 15-26 47-26 28 0 47 6 62 12l8 3 11-66zm213-7h-64c-20 0-35 5-44 25L726 665h87l18-46h106l10 46h77zm-545-3h83l-52 304h-83l52-304zM201 526l9 42 81-207h88L248 664h-87L89 407c-1-4-3-7-8-10-24-13-51-23-81-30l1-7h134c18 1 32 7 37 26l29 140zm654 31l33-85 11-29 5 26 19 88h-68z" />
    </symbol>

    <symbol id="mc" viewBox="0 0 131.4 86.9">
        <path fill="#86878b" d="M48.4 15.1h34.7v56.6H48.4z"/><path d="M52 43.5a36 36 0 0113.7-28.3 36 36 0 100 56.6 36 36 0 01-13.8-28.3z" fill="#666666"/><path fill="#adaeaf" d="M120.5 65.8v-1.2h.5v-.2h-1.2v.2h.5v1.2zm2.3 0v-1.4h-.3l-.5 1-.4-1h-.3v1.4h.2v-1.1l.4 1h.3l.4-1v1zM124 43.5a36 36 0 01-58.3 28.3 36 36 0 000-56.7 36 36 0 0158.2 28.3z"/>
    </symbol>

    <symbol id="compare" viewBox="0 0 40 34.7">
        <defs><clipPath id="z" clipPathUnits="userSpaceOnUse"><path d="M0 26h30V0H0z"/></clipPath></defs><g clip-path="url(#z)" transform="matrix(1.33333 0 0 -1.33333 0 34.7)"><path d="M15 24V2M1 9l5 13 5-13M19 9l5 13 5-13" fill="none" stroke-width="2" stroke-linecap="round" stroke-linejoin="round" stroke-miterlimit="10"/><path d="M6 21.4c0 2 4 3.6 9 3.6s9-1.6 9-3.6M10 1h10M19 9h10M1 9h10" stroke-width="2" stroke-linecap="round" stroke-linejoin="round" stroke-miterlimit="10"/></g>
    </symbol>

    <symbol id="like" viewBox="0 0 38.2004 34.6667">
        <defs><clipPath id="x" clipPathUnits="userSpaceOnUse"><path d="M0 26h28.65V0H0z"/></clipPath></defs><g clip-path="url(#x)" transform="matrix(1.33333 0 0 -1.33333 0 34.6667)"><path d="M25.4178 22.7681c-2.983 2.976-7.812 2.976-10.795 0l-.158-.158-.2-.2-.201.2-.157.158c-3.049 2.912-7.881 2.801-10.793-.248-2.82-2.951-2.818-7.598.002-10.548l10.841-10.844c.169-.17.445-.171.615-.001 0 0 .001 0 .001.001l10.845 10.844c2.977 2.983 2.977 7.813 0 10.796z" fill="none" stroke-width="2" stroke-linecap="round" stroke-linejoin="round" stroke-miterlimit="10"/></g>
    </symbol>

    <symbol id="user" viewBox="0 0 29.3 34.7">
        <defs><clipPath id="aaa" clipPathUnits="userSpaceOnUse"><path d="M0 26h22V0H0z"/></clipPath></defs><g clip-path="url(#aaa)" transform="matrix(1.33333 0 0 -1.33333 0 34.7)"><path d="M17 19a6 6 0 10-12 0 6 6 0 0012 0z" fill="none" stroke="#000" stroke-width="2" stroke-linecap="round" stroke-linejoin="round" stroke-miterlimit="10"/><path d="M21 1H1v8l7.8 4h4.4L21 9z" fill="none" stroke="#000" stroke-width="2" stroke-linecap="round" stroke-linejoin="round" stroke-miterlimit="10"/></g>
    </symbol>

    <symbol id="close" viewBox="0 0 410 410">
        <path d="M229 205L405 29a17 17 0 10-25-24L205 181 29 5A17 17 0 005 29l176 176L5 381a17 17 0 0024 24l176-176 175 176a17 17 0 0025-24L229 205z"/>
    </symbol>
</svg>