<svg style="display: none" xmlns="http://www.w3.org/2000/svg">
    <symbol id="search" viewBox="0 0 35 35">
        <defs><clipPath id="a" clipPathUnits="userSpaceOnUse"><path d="M0 26.025h26V0H0z"/></clipPath></defs><g clip-path="url(#a)" transform="matrix(1.33333 0 0 -1.33333 0 34.7)"><path d="M2.169 16.265a7.59 7.59 0 1012.946-5.379h-.001a7.59 7.59 0 00-12.945 5.38M25.683 1.85l-8.31 8.31a9.714 9.714 0 012.146 6.104c0 5.39-4.37 9.76-9.76 9.76a9.759 9.759 0 01-9.758-9.76A9.759 9.759 0 0115.837 8.63L24.149.317a1.086 1.086 0 011.534 1.534"/></g>
    </symbol>

    <symbol id="phone" viewBox="0 0 35 35">
        <defs><clipPath id="b" clipPathUnits="userSpaceOnUse"><path d="M0 26h25.99V0H0z"/></clipPath></defs><g clip-path="url(#b)" transform="matrix(1.33333 0 0 -1.33333 0 34.67)"><path d="M24.37 6.34l-3.98 3.98c-.79.8-2.2.8-3 0l-.97-.98h0a2.13 2.13 0 00-2.47-.38c-.16.08-4.63 4.5-4.63 4.5a2.13 2.13 0 00.02 3l.98.96v.02a2.1 2.1 0 010 2.98L6.34 24.4c-.78.8-2.19.8-3 0l-.95-1h-.01C1.49 22.53 1 20.92 1 18.91.99 15.5 2.51 10.3 6.47 6.34c0 0 1-.94 1.52-1.36A18.1 18.1 0 0118.85 1h.03c2.01 0 3.62.5 4.49 1.38h.01l.99.97v.01a2.1 2.1 0 010 2.98z" fill="none" stroke="#000" stroke-width="2" stroke-miterlimit="10"/></g>
    </symbol>

    <symbol id="basket" viewBox="0 0 30 35">
        <defs><clipPath id="c" clipPathUnits="userSpaceOnUse"><path d="M0 26h21.937V0H0z"/></clipPath></defs><g clip-path="url(#c)" transform="matrix(1.33333 0 0 -1.33333 0 34.6667)"><path d="M19.9063 2.0312H2.0313v15.844h2.031v-3.047c0-.561.455-1.016 1.016-1.016.561 0 1.015.455 1.015 1.016v3.047h9.751v-3.047c0-.561.454-1.016 1.015-1.016.561 0 1.016.455 1.016 1.016v3.047h2.031zm-8.938 21.937c2.412 0 4.419-1.759 4.808-4.062h-9.615c.389 2.303 2.396 4.062 4.807 4.062m9.954-4.062h-3.095c-.404 3.427-3.325 6.094-6.859 6.094-3.533 0-6.454-2.667-6.858-6.094h-3.095c-.561 0-1.015-.455-1.015-1.016V1.0152c0-.561.454-1.015 1.015-1.015h19.907c.561 0 1.015.454 1.015 1.015v17.875c0 .561-.454 1.016-1.015 1.016"/></g>
    </symbol>
</svg>