<svg style="display: none" xmlns="http://www.w3.org/2000/svg">
    <symbol id="like" viewBox="0 0 22 20">
        <path d="M11 20c-.4 0-.7-.1-.9-.4L2 11.5a6.7 6.7 0 010-9.3 6.8 6.8 0 019.1-.6A6.5 6.5 0 0120 2a6.8 6.8 0 010 9.5l-8.1 8.1c-.3.3-.6.4-.9.4zm.4-1.8zM6.7 2.1c-1.2 0-2.5.5-3.4 1.5a4.7 4.7 0 000 6.5l7.6 7.6 7.7-7.7a4.8 4.8 0 000-6.7 4.8 4.8 0 00-6.7 0l-.3.3a1 1 0 01-1.4 0l-.2-.2a4.6 4.6 0 00-3.3-1.3z"/>
    </symbol>

    <symbol id="compare" viewBox="0 0 22 20">
        <path d="M21.9 12.7l-3-8.9v-.1C19 1.3 15 0 11 0S3 1.3 3 3.7v.1l-3 8.9v.8l.1.2.1.1.1.1.2.1h6.4l.3-.1c.5-.2.8-.7.6-1.3L5 3.8v-.1c0-.4 1.7-1.5 5-1.7v16H7.2c-.6 0-1 .4-1 1s.4 1 1 1h7.5c.6 0 1-.4 1-1s-.4-1-1-1H12V2c3.3.2 5 1.3 5 1.7v.1l-3 8.9v.8l.1.2.1.1.1.1.2.1h6.4l.3-.1c.6-.1.9-.7.7-1.2zM5.6 12H2.4L4 7.2 5.6 12zm14 0h-3.2L18 7.2l1.6 4.8z"/>
    </symbol>
</svg>